<?xml version="1.0" standalone="no"?>
<svg xmlns:xlink="http://www.w3.org/1999/xlink" id="wave" style="transform:rotate(0deg); transition: 0.3s" viewBox="0 0 1440 490" version="1.1" xmlns="http://www.w3.org/2000/svg"><defs><linearGradient id="sw-gradient-0" x1="0" x2="0" y1="1" y2="0"><stop stop-color="rgba(0.085, 213.018, 241.659, 1)" offset="0%"/><stop stop-color="rgba(0, 0.18, 255, 1)" offset="100%"/></linearGradient></defs><path style="transform:translate(0, 0px); opacity:1" fill="url(#sw-gradient-0)" d="M0,98L20,98C40,98,80,98,120,155.2C160,212,200,327,240,318.5C280,310,320,180,360,163.3C400,147,440,245,480,277.7C520,310,560,278,600,220.5C640,163,680,82,720,89.8C760,98,800,196,840,204.2C880,212,920,131,960,130.7C1000,131,1040,212,1080,212.3C1120,212,1160,131,1200,81.7C1240,33,1280,16,1320,24.5C1360,33,1400,65,1440,122.5C1480,180,1520,261,1560,277.7C1600,294,1640,245,1680,187.8C1720,131,1760,65,1800,57.2C1840,49,1880,98,1920,122.5C1960,147,2000,147,2040,163.3C2080,180,2120,212,2160,196C2200,180,2240,114,2280,81.7C2320,49,2360,49,2400,57.2C2440,65,2480,82,2520,89.8C2560,98,2600,98,2640,114.3C2680,131,2720,163,2760,220.5C2800,278,2840,359,2860,400.2L2880,441L2880,490L2860,490C2840,490,2800,490,2760,490C2720,490,2680,490,2640,490C2600,490,2560,490,2520,490C2480,490,2440,490,2400,490C2360,490,2320,490,2280,490C2240,490,2200,490,2160,490C2120,490,2080,490,2040,490C2000,490,1960,490,1920,490C1880,490,1840,490,1800,490C1760,490,1720,490,1680,490C1640,490,1600,490,1560,490C1520,490,1480,490,1440,490C1400,490,1360,490,1320,490C1280,490,1240,490,1200,490C1160,490,1120,490,1080,490C1040,490,1000,490,960,490C920,490,880,490,840,490C800,490,760,490,720,490C680,490,640,490,600,490C560,490,520,490,480,490C440,490,400,490,360,490C320,490,280,490,240,490C200,490,160,490,120,490C80,490,40,490,20,490L0,490Z"/></svg>