<?xml version="1.0" standalone="no"?>
<svg xmlns:xlink="http://www.w3.org/1999/xlink" id="wave" style="transform:rotate(180deg); transition: 0.3s" viewBox="0 0 1440 490" version="1.1" xmlns="http://www.w3.org/2000/svg"><defs><linearGradient id="sw-gradient-0" x1="0" x2="0" y1="1" y2="0"><stop stop-color="rgba(15.744, 0, 234.829, 1)" offset="0%"/><stop stop-color="rgba(11, 255, 250.867, 1)" offset="100%"/></linearGradient></defs><path style="transform:translate(0, 0px); opacity:1" fill="url(#sw-gradient-0)" d="M0,245L10,269.5C20,294,40,343,60,351.2C80,359,100,327,120,277.7C140,229,160,163,180,114.3C200,65,220,33,240,89.8C260,147,280,294,300,343C320,392,340,343,360,310.3C380,278,400,261,420,228.7C440,196,460,147,480,163.3C500,180,520,261,540,253.2C560,245,580,147,600,106.2C620,65,640,82,660,114.3C680,147,700,196,720,187.8C740,180,760,114,780,106.2C800,98,820,147,840,147C860,147,880,98,900,89.8C920,82,940,114,960,106.2C980,98,1000,49,1020,24.5C1040,0,1060,0,1080,24.5C1100,49,1120,98,1140,155.2C1160,212,1180,278,1200,277.7C1220,278,1240,212,1260,228.7C1280,245,1300,343,1320,343C1340,343,1360,245,1380,236.8C1400,229,1420,310,1430,351.2L1440,392L1440,490L1430,490C1420,490,1400,490,1380,490C1360,490,1340,490,1320,490C1300,490,1280,490,1260,490C1240,490,1220,490,1200,490C1180,490,1160,490,1140,490C1120,490,1100,490,1080,490C1060,490,1040,490,1020,490C1000,490,980,490,960,490C940,490,920,490,900,490C880,490,860,490,840,490C820,490,800,490,780,490C760,490,740,490,720,490C700,490,680,490,660,490C640,490,620,490,600,490C580,490,560,490,540,490C520,490,500,490,480,490C460,490,440,490,420,490C400,490,380,490,360,490C340,490,320,490,300,490C280,490,260,490,240,490C220,490,200,490,180,490C160,490,140,490,120,490C100,490,80,490,60,490C40,490,20,490,10,490L0,490Z"/></svg>