<?xml version="1.0" standalone="no"?>
<svg xmlns:xlink="http://www.w3.org/1999/xlink" id="wave" style="transform:rotate(180deg); transition: 0.3s" viewBox="0 0 1440 490" version="1.1" xmlns="http://www.w3.org/2000/svg"><defs><linearGradient id="sw-gradient-0" x1="0" x2="0" y1="1" y2="0"><stop stop-color="rgba(15.744, 0, 234.829, 1)" offset="0%"/><stop stop-color="rgba(11, 255, 250.867, 1)" offset="100%"/></linearGradient></defs><path style="transform:translate(0, 0px); opacity:1" fill="url(#sw-gradient-0)" d="M0,343L26.7,359.3C53.3,376,107,408,160,375.7C213.3,343,267,245,320,179.7C373.3,114,427,82,480,98C533.3,114,587,180,640,236.8C693.3,294,747,343,800,326.7C853.3,310,907,229,960,228.7C1013.3,229,1067,310,1120,351.2C1173.3,392,1227,392,1280,367.5C1333.3,343,1387,294,1440,228.7C1493.3,163,1547,82,1600,65.3C1653.3,49,1707,98,1760,130.7C1813.3,163,1867,180,1920,196C1973.3,212,2027,229,2080,269.5C2133.3,310,2187,376,2240,334.8C2293.3,294,2347,147,2400,130.7C2453.3,114,2507,229,2560,253.2C2613.3,278,2667,212,2720,228.7C2773.3,245,2827,343,2880,334.8C2933.3,327,2987,212,3040,179.7C3093.3,147,3147,196,3200,204.2C3253.3,212,3307,180,3360,138.8C3413.3,98,3467,49,3520,40.8C3573.3,33,3627,65,3680,89.8C3733.3,114,3787,131,3813,138.8L3840,147L3840,490L3813.3,490C3786.7,490,3733,490,3680,490C3626.7,490,3573,490,3520,490C3466.7,490,3413,490,3360,490C3306.7,490,3253,490,3200,490C3146.7,490,3093,490,3040,490C2986.7,490,2933,490,2880,490C2826.7,490,2773,490,2720,490C2666.7,490,2613,490,2560,490C2506.7,490,2453,490,2400,490C2346.7,490,2293,490,2240,490C2186.7,490,2133,490,2080,490C2026.7,490,1973,490,1920,490C1866.7,490,1813,490,1760,490C1706.7,490,1653,490,1600,490C1546.7,490,1493,490,1440,490C1386.7,490,1333,490,1280,490C1226.7,490,1173,490,1120,490C1066.7,490,1013,490,960,490C906.7,490,853,490,800,490C746.7,490,693,490,640,490C586.7,490,533,490,480,490C426.7,490,373,490,320,490C266.7,490,213,490,160,490C106.7,490,53,490,27,490L0,490Z"/></svg>